<svg width="44" height="44" viewBox="0 0 44 44" fill="none" xmlns="http://www.w3.org/2000/svg">
<g clip-path="url(#clip0)">
<path d="M41.1614 40.4516H5.67758C4.11203 40.4516 2.83887 39.1784 2.83887 37.6129V16.5205C2.83887 14.835 4.03822 13.3717 5.69177 13.041L13.484 11.4825V7.09673C13.484 5.14015 15.0758 3.54834 17.0324 3.54834H29.8066C31.7632 3.54834 33.355 5.14015 33.355 7.09673V11.4825L41.1473 13.041C42.8008 13.3717 44.0002 14.835 44.0002 16.5205V37.6129C44.0002 39.1784 42.727 40.4516 41.1614 40.4516ZM17.0324 4.96769C15.8586 4.96769 14.9034 5.92292 14.9034 7.09673V12.6464L5.96996 14.4327C4.97854 14.6314 4.25822 15.5092 4.25822 16.5205V37.6129C4.25822 38.3956 4.8948 39.0322 5.67758 39.0322H41.1614C41.9442 39.0322 42.5808 38.3956 42.5808 37.6129V16.5205C42.5808 15.5092 41.8605 14.6314 40.8691 14.4327L31.9356 12.6464V7.09673C31.9356 5.92292 30.9804 4.96769 29.8066 4.96769H17.0324Z" fill="white"/>
<path d="M30.5158 14.9033H16.3223V7.80656C16.3223 7.02379 16.9588 6.38721 17.7416 6.38721H29.0965C29.8792 6.38721 30.5158 7.02379 30.5158 7.80656V14.9033ZM17.7416 13.484H29.0965V7.80656H17.7416V13.484Z" fill="white"/>
<path d="M27.6773 14.1936H26.2579V10.6452H20.5805V14.1936H19.1611V9.22583H27.6773V14.1936Z" fill="white"/>
<path d="M32.6458 36.1936H11.3555V19.1614H32.6458V36.1936Z" fill="#E12025"/>
<path d="M37.6128 29.8065C35.6563 29.8065 34.0645 28.2147 34.0645 26.2581C34.0645 24.3015 35.6563 22.7097 37.6128 22.7097C39.5694 22.7097 41.1612 24.3015 41.1612 26.2581C41.1612 28.2147 39.5694 29.8065 37.6128 29.8065ZM37.6128 24.1291C36.439 24.1291 35.4838 25.0843 35.4838 26.2581C35.4838 27.4319 36.439 28.3871 37.6128 28.3871C38.7866 28.3871 39.7419 27.4319 39.7419 26.2581C39.7419 25.0843 38.7866 24.1291 37.6128 24.1291Z" fill="white"/>
<path d="M25.0452 31.7243L26.0488 30.7207L18.9532 23.6251L17.9496 24.6288L25.0452 31.7243Z" fill="white"/>
<path d="M25.0462 27.469L26.0498 26.4653L23.211 23.6266L22.2074 24.6302L25.0462 27.469Z" fill="white"/>
<path d="M20.7874 31.7265L21.791 30.7229L18.9523 27.8841L17.9486 28.8878L20.7874 31.7265Z" fill="white"/>
<path d="M7.80677 24.1292C6.63296 24.1292 5.67773 23.1739 5.67773 22.0001C5.67773 20.8263 6.63296 19.8711 7.80677 19.8711C8.98057 19.8711 9.9358 20.8263 9.9358 22.0001C9.9358 23.1739 8.98057 24.1292 7.80677 24.1292ZM7.80677 21.2904C7.41502 21.2904 7.09709 21.6091 7.09709 22.0001C7.09709 22.3912 7.41502 22.7098 7.80677 22.7098C8.19851 22.7098 8.51644 22.3912 8.51644 22.0001C8.51644 21.6091 8.19851 21.2904 7.80677 21.2904Z" fill="white"/>
<path d="M7.80677 29.8064C6.63296 29.8064 5.67773 28.8512 5.67773 27.6774C5.67773 26.5036 6.63296 25.5483 7.80677 25.5483C8.98057 25.5483 9.9358 26.5036 9.9358 27.6774C9.9358 28.8512 8.98057 29.8064 7.80677 29.8064ZM7.80677 26.9677C7.41502 26.9677 7.09709 27.2863 7.09709 27.6774C7.09709 28.0684 7.41502 28.3871 7.80677 28.3871C8.19851 28.3871 8.51644 28.0684 8.51644 27.6774C8.51644 27.2863 8.19851 26.9677 7.80677 26.9677Z" fill="white"/>
<path d="M7.80677 35.4839C6.63296 35.4839 5.67773 34.5287 5.67773 33.3549C5.67773 32.1811 6.63296 31.2258 7.80677 31.2258C8.98057 31.2258 9.9358 32.1811 9.9358 33.3549C9.9358 34.5287 8.98057 35.4839 7.80677 35.4839ZM7.80677 32.6452C7.41502 32.6452 7.09709 32.9638 7.09709 33.3549C7.09709 33.7459 7.41502 34.0645 7.80677 34.0645C8.19851 34.0645 8.51644 33.7459 8.51644 33.3549C8.51644 32.9638 8.19851 32.6452 7.80677 32.6452Z" fill="white"/>
<path d="M36.1935 21.2903C35.0197 21.2903 34.0645 20.3351 34.0645 19.1613C34.0645 17.9875 35.0197 17.0322 36.1935 17.0322C37.3673 17.0322 38.3225 17.9875 38.3225 19.1613C38.3225 20.3351 37.3673 21.2903 36.1935 21.2903ZM36.1935 18.4516C35.8017 18.4516 35.4838 18.7702 35.4838 19.1613C35.4838 19.5523 35.8017 19.8709 36.1935 19.8709C36.5852 19.8709 36.9032 19.5523 36.9032 19.1613C36.9032 18.7702 36.5852 18.4516 36.1935 18.4516Z" fill="white"/>
<path d="M41.1612 36.1936H34.0645V31.9355H41.1612V36.1936ZM35.4838 34.7743H39.7419V33.3549H35.4838V34.7743Z" fill="white"/>
<path d="M38.3227 32.6453H36.9033V35.484H38.3227V32.6453Z" fill="white"/>
<path d="M3.54839 36.1936H2.12903C0.955226 36.1936 0 35.2384 0 34.0646V25.5485C0 24.3747 0.955226 23.4194 2.12903 23.4194H3.54839V24.8388H2.12903C1.73729 24.8388 1.41935 25.1574 1.41935 25.5485V34.0646C1.41935 34.4556 1.73729 34.7743 2.12903 34.7743H3.54839V36.1936Z" fill="white"/>
<path d="M6.38713 13.4839H4.96777V9.93555H12.0645V12.0646H10.6452V11.3549H6.38713V13.4839Z" fill="white"/>
<path d="M36.1938 10.6453H34.7744V12.0646H36.1938V10.6453Z" fill="white"/>
<path d="M39.0326 11.3547H37.6133V12.7741H39.0326V11.3547Z" fill="white"/>
<path d="M38.3227 25.5483H36.9033V26.9677H38.3227V25.5483Z" fill="white"/>
<path d="M33.3549 15.6128H31.9355V17.0321H33.3549V15.6128Z" fill="white"/>
<path d="M12.0639 15.6128H10.6445V17.0321H12.0639V15.6128Z" fill="white"/>
<path d="M9.226 15.6128H7.80664V17.0321H9.226V15.6128Z" fill="white"/>
</g>
<defs>
<clipPath id="clip0">
<rect width="44" height="44" fill="white"/>
</clipPath>
</defs>
</svg>
