<svg width="22" height="21" viewBox="0 0 22 21" fill="none" xmlns="http://www.w3.org/2000/svg">
<path d="M0.5625 0.550293V2.11279H3.6875C4.02319 2.11279 4.31006 2.33252 4.41992 2.6499L5.87866 15.6687C6.01294 16.8467 7.02612 17.75 8.2102 17.75H17.75V16.1875H8.2102C7.80737 16.1875 7.47778 15.8945 7.43506 15.4978L7.3374 14.625H17.2495C18.3604 14.625 19.3308 13.8315 19.5505 12.7451L21.0459 5.25H6.28149L5.9458 2.27148L5.92139 2.19824C5.62231 1.22168 4.71289 0.556396 3.6875 0.550293H0.5625ZM16.1875 17.75C15.3269 17.75 14.625 18.4519 14.625 19.3125C14.625 20.1731 15.3269 20.875 16.1875 20.875C17.0481 20.875 17.75 20.1731 17.75 19.3125C17.75 18.4519 17.0481 17.75 16.1875 17.75ZM8.375 17.75C7.5144 17.75 6.8125 18.4519 6.8125 19.3125C6.8125 20.1731 7.5144 20.875 8.375 20.875C9.2356 20.875 9.9375 20.1731 9.9375 19.3125C9.9375 18.4519 9.2356 17.75 8.375 17.75ZM6.4585 6.8125H19.1416L18.0186 12.4338C17.9392 12.8062 17.6279 13.0625 17.2495 13.0625H7.1604L6.4585 6.8125Z" fill="#8A8A8A"/>
</svg>
