<svg width="16" height="16" viewBox="0 0 16 16" fill="none" xmlns="http://www.w3.org/2000/svg">
<path d="M4.88477 0.4375C2.4436 0.4375 0.4375 2.44092 0.4375 4.88477V11.1152C0.4375 13.5564 2.44092 15.5625 4.88477 15.5625H11.1152C13.5564 15.5625 15.5625 13.5591 15.5625 11.1152V4.88477C15.5625 2.4436 13.5591 0.4375 11.1152 0.4375H4.88477ZM4.88477 1.8125H11.1152C12.8152 1.8125 14.1875 3.18481 14.1875 4.88477V11.1152C14.1875 12.8152 12.8152 14.1875 11.1152 14.1875H4.88477C3.18481 14.1875 1.8125 12.8152 1.8125 11.1152V4.88477C1.8125 3.18481 3.18481 1.8125 4.88477 1.8125ZM12.0605 3.31641C11.7141 3.31641 11.4375 3.59302 11.4375 3.93945C11.4375 4.28589 11.7141 4.5625 12.0605 4.5625C12.407 4.5625 12.6836 4.28589 12.6836 3.93945C12.6836 3.59302 12.407 3.31641 12.0605 3.31641ZM8 3.875C5.73071 3.875 3.875 5.73071 3.875 8C3.875 10.2693 5.73071 12.125 8 12.125C10.2693 12.125 12.125 10.2693 12.125 8C12.125 5.73071 10.2693 3.875 8 3.875ZM8 5.25C9.52808 5.25 10.75 6.47192 10.75 8C10.75 9.52808 9.52808 10.75 8 10.75C6.47192 10.75 5.25 9.52808 5.25 8C5.25 6.47192 6.47192 5.25 8 5.25Z" fill="black"/>
</svg>
