<svg width="17" height="17" viewBox="0 0 17 17" fill="none" xmlns="http://www.w3.org/2000/svg">
<path d="M8.375 0.25C3.89258 0.25 0.25 3.89258 0.25 8.375C0.25 9.99609 0.772461 11.4805 1.58789 12.75L0.191406 16.6514L4.53711 15.4258C5.68945 16.0557 6.96875 16.5 8.375 16.5C12.8574 16.5 16.5 12.8574 16.5 8.375C16.5 3.89258 12.8574 0.25 8.375 0.25ZM8.375 1.5C12.1787 1.5 15.25 4.57129 15.25 8.375C15.25 12.1787 12.1787 15.25 8.375 15.25C7.07129 15.25 5.86523 14.8838 4.82031 14.2539L4.59082 14.1123L2.18359 14.7861L2.96484 12.6182L2.77441 12.3545C1.97363 11.2266 1.5 9.85938 1.5 8.375C1.5 4.57129 4.57129 1.5 8.375 1.5ZM5.32812 4C5.18652 4 4.95215 4.05859 4.75195 4.29297C4.55664 4.52246 4 5.08398 4 6.22656C4 7.36426 4.77148 8.46777 4.87891 8.62402C4.98633 8.78027 6.39746 11.1191 8.55566 12.125C9.06836 12.3643 9.46875 12.5059 9.78125 12.6133C10.2988 12.7891 10.7676 12.7646 11.1387 12.7061C11.5537 12.6377 12.4131 12.1445 12.5938 11.6025C12.7695 11.0605 12.7744 10.5967 12.7158 10.499C12.667 10.4014 12.5205 10.3428 12.3057 10.2305C12.0908 10.1133 11.0312 9.55176 10.8359 9.47852C10.6406 9.39551 10.4941 9.36133 10.3477 9.59082C10.2061 9.8252 9.7959 10.3477 9.66895 10.499C9.54199 10.6553 9.41992 10.6748 9.20508 10.5576C8.98535 10.4404 8.29199 10.1963 7.47168 9.40527C6.83203 8.79004 6.39746 8.0332 6.27539 7.79883C6.14844 7.56445 6.26074 7.44238 6.36816 7.33008C6.46582 7.22266 6.58301 7.05664 6.69043 6.91992C6.79785 6.78809 6.83203 6.68555 6.90527 6.53418C6.97852 6.37793 6.94434 6.24121 6.89062 6.12891C6.83203 6.01172 6.40234 4.86914 6.22656 4.40527C6.05078 3.95606 5.87012 4.01465 5.73828 4.00977C5.61621 4 5.46973 4 5.32812 4Z" fill="black"/>
</svg>
